<svg preserveAspectRatio="none" width="100%" height="100%" overflow="visible" style="display: block;" viewBox="0 0 35 72" fill="none" xmlns="http://www.w3.org/2000/svg">
<path id="image 3 (Traced)" fill-rule="evenodd" clip-rule="evenodd" d="M21.1153 0.67605C19.3703 1.55492 18.0875 3.38806 17.8805 5.29933C17.742 6.57902 16.8563 8.25232 15.3968 9.99112C15.2923 10.1155 15.3358 9.43946 15.4933 8.48879C15.7196 7.12256 15.675 6.40265 15.2803 5.05295C14.8186 3.4749 13.544 1.50233 12.9857 1.50233C12.8551 1.50233 12.4341 2.21204 12.0506 3.07978C10.7298 6.06642 11.419 9.75826 13.5391 11.0539L14.3801 11.568L12.8481 14.7301L11.3158 17.8919V15.7751C11.3158 13.9852 11.1613 13.3455 10.3149 11.6338C9.63232 10.2534 9.02912 9.4629 8.41897 9.14861L7.52396 8.6877L7.04025 9.82737C6.7741 10.4541 6.49105 11.851 6.41079 12.9315C6.2925 14.5228 6.39389 15.1943 6.94459 16.4689C7.61962 18.0313 9.02399 19.5303 9.81247 19.5303C10.5291 19.5303 10.6194 20.1024 10.1344 21.5651C9.87524 22.3466 9.47179 23.8646 9.23733 24.9387C9.00316 26.0129 8.79797 26.5444 8.78107 26.1202C8.65584 22.9235 5.31089 18.3285 3.10989 18.3285C2.44603 18.3285 2.41404 18.4306 2.41404 20.5477C2.41404 22.3899 2.55677 23.0407 3.25503 24.3787C4.22789 26.2437 6.45122 27.9434 7.91745 27.9434C8.77443 27.9434 8.81547 27.9969 8.63774 28.8824C8.53394 29.3989 8.44582 31.055 8.4413 32.5631L8.43375 35.3048L7.52638 33.4419C6.22551 30.7717 3.07247 28.2709 0.980704 28.2505C0.0980704 28.2418 0.0784565 29.2637 0.910094 31.9444C1.41312 33.566 1.78367 34.1432 3.05044 35.2772C4.59181 36.6572 6.45032 37.4213 7.69083 37.1852C8.29495 37.0701 8.37189 37.2672 8.82392 40.0895C9.09098 41.7547 9.40721 43.3874 9.52701 43.7179C9.64681 44.0484 9.33781 43.7732 8.84022 43.1062C7.20259 40.9112 5.09785 39.4798 2.47288 38.7761C0.920051 38.3597 0 38.5877 0 39.3888C0 40.2244 1.91554 43.8925 2.76166 44.677C3.15244 45.0394 4.26893 45.6992 5.2433 46.1433C6.75449 46.8322 7.27049 46.9242 8.75723 46.7694C10.4612 46.5919 10.5044 46.606 10.7051 47.4016C10.8179 47.849 11.3816 49.2315 11.9576 50.4736L13.0053 52.7319L11.859 51.6208C10.116 49.9319 7.52607 48.8727 5.07643 48.8472C2.31718 48.818 2.06582 49.1344 3.31116 51.0664C4.6588 53.1577 6.64495 54.825 8.35771 55.3024C10.2446 55.8285 12.4975 55.7705 13.4145 55.172C14.1445 54.6961 14.171 54.7105 15.1264 56.114C15.6602 56.8979 16.6053 58.1532 17.2272 58.9038L18.3576 60.2679L16.4635 59.3187C14.1623 58.1655 11.4051 57.7999 9.2334 58.36C8.42017 58.5697 7.60543 58.9894 7.42287 59.2926C7.14073 59.7619 7.31635 60.0435 8.60002 61.1792C10.8617 63.1806 12.4187 63.8302 14.9369 63.8239C17.0368 63.8185 18.0075 63.5115 19.1614 62.4875C19.7496 61.9656 19.8283 62.0067 22.2387 64.0929C23.5994 65.2704 24.6727 66.2736 24.6238 66.3223C24.5749 66.3713 24.0046 66.1826 23.357 65.9035C21.8966 65.2746 18.1907 65.1956 16.2673 65.7526C14.5968 66.2367 13.111 67.3436 13.3412 67.9325C13.4323 68.1657 14.4384 68.8294 15.5772 69.4078C17.4405 70.3543 17.8895 70.4585 20.0643 70.4513C22.819 70.442 24.5393 69.7579 25.6244 68.2405L26.2539 67.3601L28.441 68.7861C31.4966 70.7779 34.2987 72.21 34.6807 71.9747C35.3334 71.573 34.971 70.9868 33.7257 70.43C32.6915 69.9676 27.5982 66.9368 27.2065 66.5507C27.1504 66.4951 27.6607 65.9494 28.3405 65.3377C30.7443 63.1755 31.114 59.3533 29.2693 55.7348C28.7141 54.6456 28.139 53.6799 27.9917 53.5891C27.5587 53.3229 26.5122 54.4338 25.8888 55.8213C24.9473 57.9165 24.8444 60.8466 25.6262 63.2864C25.9905 64.4222 26.3674 65.5447 26.4645 65.7809C26.6984 66.3506 23.405 63.7608 21.8772 62.1738C21.2134 61.4839 20.806 60.8682 20.972 60.8058C22.9373 60.0642 24.6709 57.4874 24.9675 54.867C25.1323 53.4101 24.0384 49.2146 23.3438 48.6408C22.3042 47.7814 20.2764 50.7185 19.5595 54.1219C19.2716 55.4887 19.2912 56.2399 19.6648 58.1619L20.124 60.523L18.8045 59.0312C18.0791 58.2106 16.9448 56.7729 16.2842 55.836L15.0835 54.1327L16.0132 53.9293C17.3102 53.6456 18.9034 52.1622 19.8522 50.3552C20.5124 49.0981 20.65 48.4515 20.6265 46.7226C20.5996 44.7569 20.0863 42.0653 19.7384 42.0653C19.2034 42.0653 17.7197 43.1164 17.0848 43.9451C15.4381 46.0949 14.7938 48.0338 14.7646 50.9291L14.7371 53.6333L13.1052 50.3282C11.1806 46.4305 11.1049 45.9714 12.387 45.9714C13.6037 45.9714 14.697 45.3711 16.0353 43.9679C17.72 42.2018 18.1946 41.0209 18.3482 38.2131C18.5184 35.1032 18.3226 34.8508 16.4411 35.7576C13.8774 36.9935 11.7745 40.338 11.1969 44.0974L10.9782 45.5207L10.3318 42.8165C9.97632 41.3292 9.59551 39.4179 9.48567 38.5694L9.28591 37.0268H10.8511C12.1692 37.0268 12.6785 36.8471 14.0748 35.8895C15.9227 34.6222 16.9046 33.0342 17.4644 30.4075C17.9255 28.243 17.9258 28.2439 16.8862 28.2439C14.8258 28.2439 11.6188 30.8201 10.3792 33.4711C9.98477 34.3142 9.66069 35.1735 9.65918 35.38C9.65737 35.5867 9.49955 35.7555 9.30794 35.7555C9.05356 35.7555 9.01252 34.7799 9.15615 32.1229C9.26388 30.1251 9.42894 28.3671 9.52248 28.2162C9.62357 28.0534 9.92291 28.0645 10.2582 28.243C11.8855 29.1101 15.7272 28.0083 17.2124 26.2485C18.3594 24.8895 19.4348 22.6849 19.2212 22.1309C18.9517 21.432 17.3057 21.4918 15.1747 22.2778C13.4815 22.9025 11.4628 24.5806 10.1661 26.4411L9.64258 27.1922L9.83691 25.8401C10.0527 24.3417 11.0288 20.4672 11.2452 20.2518C11.3209 20.1763 11.75 20.2536 12.1988 20.4233C14.7435 21.3866 18.2861 20.2118 20.0326 17.8255C21.7061 15.5392 21.9291 15.0345 21.4107 14.7078C20.717 14.271 18.7583 14.3761 16.936 14.9482C15.7528 15.3196 14.7483 15.9464 13.5147 17.0836C12.5542 17.9691 11.7703 18.5776 11.7727 18.436C11.7772 18.1815 14.7066 11.9973 14.9266 11.7783C14.9891 11.7161 15.4707 11.9814 15.9966 12.3678C16.7842 12.9462 17.3084 13.0664 18.9626 13.0478C20.0676 13.0354 21.297 12.8513 21.6944 12.6385C22.6325 12.1362 25.0457 9.92021 25.0457 9.56145C25.0457 9.40881 24.5408 9.07379 23.9237 8.8169C21.9527 7.99692 18.0836 8.81569 16.2193 10.4475C15.3823 11.1804 15.5977 10.6206 16.8717 8.7526C17.8431 7.32808 18.2839 6.9534 19.3612 6.63641C20.0812 6.42458 21.118 5.91469 21.6654 5.50305C22.8094 4.64311 24.6148 2.04077 24.9102 0.826283C25.1063 0.0198308 25.0792 0 23.7843 0C23.0076 0 21.9014 0.280035 21.1153 0.67605Z" fill="url(#paint0_linear_63_763)"/>
<defs>
<linearGradient id="paint0_linear_63_763" x1="17.5" y1="0" x2="17.5" y2="72" gradientUnits="userSpaceOnUse">
<stop stop-color="white"/>
<stop offset="1" stop-color="white" stop-opacity="0.2"/>
</linearGradient>
</defs>
</svg>
