<svg preserveAspectRatio="none" width="100%" height="100%" overflow="visible" style="display: block;" viewBox="0 0 13.3336 13.3332" fill="none" xmlns="http://www.w3.org/2000/svg">
<path id="Vector" d="M4.76882 2.272C5.61349 0.757333 6.03549 0 6.66682 0C7.29816 0 7.72016 0.757333 8.56482 2.272L8.78349 2.664C9.02349 3.09467 9.14349 3.31 9.33016 3.452C9.51682 3.594 9.75016 3.64667 10.2168 3.752L10.6408 3.848C12.2808 4.21933 13.1002 4.40467 13.2955 5.032C13.4902 5.65867 12.9315 6.31267 11.8135 7.62L11.5242 7.958C11.2068 8.32933 11.0475 8.51533 10.9762 8.74467C10.9048 8.97467 10.9288 9.22267 10.9768 9.718L11.0208 10.1693C11.1895 11.914 11.2742 12.786 10.7635 13.1733C10.2528 13.5607 9.48482 13.2073 7.95016 12.5007L7.55216 12.318C7.11616 12.1167 6.89816 12.0167 6.66682 12.0167C6.43549 12.0167 6.21749 12.1167 5.78149 12.318L5.38416 12.5007C3.84882 13.2073 3.08082 13.5607 2.57082 13.174C2.05949 12.786 2.14416 11.914 2.31282 10.1693L2.35682 9.71867C2.40482 9.22267 2.42882 8.97467 2.35682 8.74533C2.28616 8.51533 2.12682 8.32933 1.80949 7.95867L1.52016 7.62C0.402157 6.31333 -0.15651 5.65933 0.0381567 5.032C0.232823 4.40467 1.05349 4.21867 2.69349 3.848L3.11749 3.752C3.58349 3.64667 3.81616 3.594 4.00349 3.452C4.19082 3.31 4.31016 3.09467 4.55016 2.664L4.76882 2.272Z" fill="var(--fill-0, #F9B701)"/>
</svg>
