<svg preserveAspectRatio="none" width="100%" height="100%" overflow="visible" style="display: block;" viewBox="0 0 24 24" fill="none" xmlns="http://www.w3.org/2000/svg">
<path id="Vector" fill-rule="evenodd" clip-rule="evenodd" d="M12 24C6.3432 24 3.5148 24 1.7568 22.242C0 20.4864 0 17.6568 0 12C0 6.3432 0 3.5148 1.7568 1.7568C3.516 0 6.3432 0 12 0C17.6568 0 20.4852 0 22.242 1.7568C24 3.516 24 6.3432 24 12C24 17.6568 24 20.4852 22.242 22.242C20.4864 24 17.6568 24 12 24ZM16.836 8.364C17.0045 8.53275 17.0992 8.7615 17.0992 9C17.0992 9.2385 17.0045 9.46725 16.836 9.636L10.836 15.636C10.6672 15.8045 10.4385 15.8992 10.2 15.8992C9.9615 15.8992 9.73275 15.8045 9.564 15.636L7.164 13.236C7.07558 13.1536 7.00465 13.0542 6.95546 12.9438C6.90627 12.8334 6.87982 12.7143 6.87769 12.5934C6.87556 12.4726 6.89779 12.3525 6.94305 12.2405C6.98832 12.1284 7.05569 12.0266 7.14115 11.9412C7.22662 11.8557 7.32842 11.7883 7.44048 11.7431C7.55255 11.6978 7.67258 11.6756 7.79343 11.6777C7.91427 11.6798 8.03345 11.7063 8.14385 11.7555C8.25425 11.8047 8.35361 11.8756 8.436 11.964L10.2 13.728L15.564 8.364C15.7328 8.19546 15.9615 8.10079 16.2 8.10079C16.4385 8.10079 16.6673 8.19546 16.836 8.364Z" fill="var(--fill-0, #05A8FF)"/>
</svg>
